<svg width="638" height="622" viewBox="0 0 638 622" fill="none" xmlns="http://www.w3.org/2000/svg">
<path d="M20 0C8.9543 0 0 8.9543 0 20V602C0 613.046 8.9543 622 20 622H110C121.046 622 130 613.046 130 602V20C130 8.9543 121.046 0 110 0H20ZM180 37C168.954 37 160 45.9543 160 57V602C160 613.046 168.954 622 180 622H270C281.046 622 290 613.046 290 602V57C290 45.9543 281.046 37 270 37H180ZM319.517 120.392C315.365 110.156 320.298 98.493 330.534 94.342L413.936 60.5167C424.172 56.3654 435.835 61.298 439.986 71.5339L635.961 554.749C640.112 564.985 635.179 576.648 624.944 580.8L541.542 614.624C531.306 618.776 519.643 613.843 515.491 603.607L319.517 120.392Z" fill="#DE9E36"/>
</svg>
